<svg width="92" height="24" viewBox="0 0 92 24" fill="none" xmlns="http://www.w3.org/2000/svg">
	<path
		d="M0.888 2.552C0.888 1.448 0.72 0.991999 0 0.271999V0.079999H4.224V0.271999C3.552 0.991999 3.288 1.448 3.288 2.552V14.528C3.288 15.632 3.552 16.088 4.224 16.808V17H0V16.808C0.72 16.088 0.888 15.632 0.888 14.528V2.552Z"
		fill="black" />
	<path
		d="M5.67188 6.2L9.17587 5.72V8.624C10.1359 7.016 11.2399 5.72 13.2319 5.72C15.0079 5.72 16.3759 6.608 16.3759 8.528L16.4239 14.528C16.4239 15.632 16.6879 16.088 17.3599 16.808V17H13.1359V16.808C13.8559 16.088 14.0239 15.632 14.0239 14.528L13.9759 9.008C13.9759 7.88 13.2559 6.992 12.2239 6.992C10.7599 6.992 9.84787 8.192 9.17587 9.344V14.528C9.17587 15.632 9.43988 16.088 10.1119 16.808V17H5.88788V16.808C6.60787 16.088 6.77588 15.632 6.77588 14.528V8.672C6.77588 7.568 6.51188 7.016 5.67188 6.392V6.2Z"
		fill="black" />
	<path
		d="M23.2609 5.72C24.4609 5.72 25.7809 6.008 26.8609 6.056L27.2209 8.744H27.0529C26.1409 7.016 25.0129 6.08 23.2609 6.08C22.1089 6.08 21.1249 6.656 21.0769 7.904C21.0289 9.248 22.1089 9.488 22.7329 9.632C25.0129 10.184 27.7969 10.712 27.7969 13.616C27.7969 16.232 25.0849 17 22.8289 17C21.6529 17 19.7089 16.256 19.3729 16.16H19.1329L18.7969 13.16H18.9889C19.8529 15.296 20.9329 16.64 22.8529 16.64C24.1969 16.64 25.6609 16.064 25.6609 14.576C25.6609 12.728 23.9089 12.44 22.1329 11.936C19.6129 11.24 18.7969 10.328 18.7969 8.936C18.7969 6.512 21.2209 5.72 23.2609 5.72Z"
		fill="black" />
	<path
		d="M29.2266 6.392V6.2L32.6346 5.72L32.7306 6.392C33.4506 5.984 34.3146 5.72 35.2266 5.72C38.6106 5.72 40.8666 7.976 40.8666 11.36C40.8666 14.744 38.6106 17 35.2266 17C34.2906 17 33.4506 16.832 32.7306 16.52V20.648C32.7306 21.752 32.9946 22.208 33.6666 22.928V23.12H29.4426V22.928C30.1626 22.208 30.3306 21.752 30.3306 20.648V8.672C30.3306 7.568 30.0666 7.016 29.2266 6.392ZM35.2266 6.08C34.1946 6.08 33.3306 6.56 32.7306 7.448V15.248C33.3306 16.136 34.1946 16.64 35.2266 16.64C37.0986 16.64 38.3466 14.528 38.3466 11.36C38.3466 8.192 37.0986 6.08 35.2266 6.08Z"
		fill="black" />
	<path
		d="M42.9047 2.624C42.9047 1.712 43.5287 1.088 44.4407 1.088C45.3527 1.088 45.9767 1.712 45.9767 2.624C45.9767 3.56 45.3527 4.184 44.4407 4.184C43.5287 4.184 42.9047 3.56 42.9047 2.624ZM42.3047 6.2L45.8087 5.72V14.528C45.8087 15.632 46.0727 16.088 46.7447 16.808V17H42.5207V16.808C43.2407 16.088 43.4087 15.632 43.4087 14.528V8.672C43.4087 7.568 43.1447 7.016 42.3047 6.392V6.2Z"
		fill="black" />
	<path
		d="M48.1875 6.392V6.2L51.6915 5.72V8.648C52.6515 7.04 53.8995 5.72 55.8915 5.72C56.7315 5.72 57.4035 5.84 57.9555 6.464C58.7715 7.4 57.9795 8.528 57.0435 8.528C56.6595 8.528 56.2755 8.336 55.9395 7.904C55.6755 7.568 55.2675 6.968 54.2835 7.016C53.2275 7.064 52.3155 8.288 51.6915 9.632V14.528C51.6915 15.632 51.9555 16.088 52.6275 16.808V17H48.4035V16.808C49.1235 16.088 49.2915 15.632 49.2915 14.528V8.672C49.2915 7.568 49.0275 7.016 48.1875 6.392Z"
		fill="black" />
	<path
		d="M69.0761 10.4H61.2761C61.2521 10.712 61.2281 11.024 61.2281 11.36C61.2281 14.024 63.1001 15.632 65.1401 15.704C66.4841 15.752 68.0201 15.272 69.0281 13.784L69.2201 13.952C68.1161 15.536 66.8681 17 64.3481 17C60.9641 17 58.7081 14.744 58.7081 11.36C58.7081 7.976 60.9641 5.72 64.3481 5.72C66.8681 5.72 69.0761 7.616 69.0761 10.4ZM61.3241 9.992H66.5801C66.7721 8.36 66.0281 6.08 64.3481 6.08C62.7641 6.08 61.6361 7.592 61.3241 9.992Z"
		fill="black" />
	<path
		d="M73.8525 17H70.0556L75.9384 0.03125H80.4619L86.3213 17H82.5478L81.2822 13.0859H75.1416L73.8525 17ZM76.0322 10.3438H80.3916L78.2588 3.85156H78.1416L76.0322 10.3438Z"
		fill="black" />
	<path d="M91.7588 0.03125V17H88.2431V0.03125H91.7588Z" fill="black" />
</svg>