<svg width="20" height="20" viewBox="0 0 20 20" fill="none" xmlns="http://www.w3.org/2000/svg">
<g id="Interface essential/Pen">
<g id="Icon">
<path fill-rule="evenodd" clip-rule="evenodd" d="M2.35504 12.5273L1.72171 16.9273C1.67597 17.2661 1.77897 17.6081 2.00419 17.8653C2.22942 18.1224 2.55486 18.2696 2.89671 18.269H3.07171L7.47171 17.6357C8.06813 17.5534 8.62127 17.2783 9.04671 16.8523L17.1634 8.72732C18.7424 7.0924 18.7198 4.49363 17.1126 2.8864C15.5054 1.27918 12.9066 1.2566 11.2717 2.83565L3.13837 10.9523C2.71237 11.3778 2.43727 11.9309 2.35504 12.5273ZM8.12171 15.969C7.89122 16.1903 7.60195 16.3407 7.28837 16.4023L2.94671 16.9773L3.55504 12.669C3.61661 12.3554 3.76702 12.0661 3.98837 11.8357L12.1134 3.71898C12.6608 3.15696 13.4121 2.83997 14.1967 2.83997C14.9813 2.83997 15.7326 3.15696 16.28 3.71898C16.8291 4.26488 17.1379 5.0072 17.1379 5.78148C17.1379 6.55576 16.8291 7.29808 16.28 7.84398L8.12171 15.969Z" fill="#333333"/>
<path d="M13.805 5.31065C14.0513 5.08118 14.435 5.08795 14.6731 5.32596C14.9111 5.56397 14.9178 5.94772 14.6884 6.19398L11.18 9.70232C10.936 9.94603 10.5407 9.94603 10.2967 9.70232C10.053 9.4583 10.053 9.063 10.2967 8.81898L13.805 5.31065Z" fill="#333333"/>
</g>
</g>
</svg>
