<svg width="20" height="20" viewBox="0 0 20 20" fill="none" xmlns="http://www.w3.org/2000/svg">
<path d="M8.33333 6.15862H3.33333C2.8731 6.15862 2.5 6.53171 2.5 6.99195C2.5 7.45219 2.8731 7.82528 3.33333 7.82528H8.33333C8.79357 7.82528 9.16667 7.45219 9.16667 6.99195C9.16667 6.53171 8.79357 6.15862 8.33333 6.15862Z" fill="black"/>
<path d="M6.66667 11.8003C5.96166 11.7981 5.31615 12.1951 5 12.8253H3.33333C2.8731 12.8253 2.5 13.1984 2.5 13.6586C2.5 14.1189 2.8731 14.492 3.33333 14.492H5C5.41283 15.2999 6.35066 15.6892 7.21431 15.4112C8.07797 15.1331 8.61253 14.2698 8.47648 13.3728C8.34043 12.4757 7.57392 11.8097 6.66667 11.8003Z" fill="black"/>
<path d="M11.4333 8.71695C12.0782 8.71599 12.6757 8.37777 13.0083 7.82528H16.6667C17.1269 7.82528 17.5 7.45219 17.5 6.99195C17.5 6.53171 17.1269 6.15862 16.6667 6.15862H13.15C12.7979 5.29276 11.8575 4.82316 10.9538 5.06195C10.0501 5.30075 9.46441 6.1736 9.58601 7.10036C9.7076 8.02713 10.4986 8.71936 11.4333 8.71695Z" fill="black"/>
<path d="M16.6667 12.8253H10C9.53976 12.8253 9.16667 13.1984 9.16667 13.6586C9.16667 14.1189 9.53976 14.4919 10 14.4919H16.6667C17.1269 14.4919 17.5 14.1189 17.5 13.6586C17.5 13.1984 17.1269 12.8253 16.6667 12.8253Z" fill="black"/>
</svg>
