<svg width="16" height="16" viewBox="0 0 16 16" fill="none" xmlns="http://www.w3.org/2000/svg">
<path d="M8.77764 8.00537L13.8413 2.95881C14.0529 2.74527 14.0529 2.39933 13.8413 2.18579C13.6335 1.96843 13.2903 1.9619 13.0745 2.1712L8.01085 7.21775L3.01226 2.1712C2.90978 2.06192 2.76719 2 2.61802 2C2.46884 2 2.32625 2.06192 2.22377 2.1712C2.0362 2.37752 2.0362 2.69416 2.22377 2.90047L7.22236 7.93973L2.15867 12.979C1.94711 13.1925 1.94711 13.5385 2.15867 13.752C2.25938 13.856 2.3979 13.914 2.54206 13.9125C2.689 13.9245 2.83468 13.8773 2.94716 13.7812L8.01085 8.73464L13.0745 13.8395C13.1753 13.9435 13.3138 14.0015 13.4579 14C13.6019 14.0007 13.7401 13.9428 13.8413 13.8395C14.0529 13.626 14.0529 13.28 13.8413 13.0665L8.77764 8.00537Z" fill="white"/>
</svg>
